<mxfile host="app.diagrams.net" modified="2024-05-20T12:40:45.427Z" agent="Mozilla/5.0 (Macintosh; Intel Mac OS X 10_15_7) AppleWebKit/605.1.15 (KHTML, like Gecko) Version/17.1.2 Safari/605.1.15" version="24.4.4" etag="R8L9V3VOq6e6lSlWUU2a" type="github">
  <diagram name="Page-1" id="iXO1aUdg57oIBrVPbaz7">
    <mxGraphModel>
      <root>
        <mxCell id="0" />
        <mxCell id="1" parent="0" />
      </root>
    </mxGraphModel>
  </diagram>
</mxfile>
